<svg width="87" height="32" viewBox="0 0 87 32" fill="none" xmlns="http://www.w3.org/2000/svg">
<path d="M82.1306 14.3096C82.1306 14.4611 82.257 14.5893 82.5099 14.6941C82.7749 14.7873 83.1724 14.8922 83.7023 15.0087C84.0636 15.0786 84.3948 15.1719 84.6959 15.2884C85.0091 15.3932 85.3162 15.5505 85.6173 15.7603C85.9305 15.9584 86.1713 16.238 86.34 16.5992C86.5206 16.9488 86.6109 17.3507 86.6109 17.8052C86.6109 18.8189 86.2255 19.5588 85.4547 20.0248C84.6719 20.5026 83.7565 20.7414 82.7087 20.7414C80.6853 20.7414 79.3363 20.0481 78.6619 18.6616L81.2815 17.3857C81.5103 18.0265 81.98 18.347 82.6906 18.347C83.2326 18.347 83.5036 18.1897 83.5036 17.8751C83.5036 17.7236 83.3771 17.6013 83.1242 17.508C82.8833 17.4032 82.4919 17.2867 81.9499 17.1585C81.5886 17.0886 81.2574 16.9954 80.9563 16.8788C80.6672 16.7507 80.3661 16.5875 80.053 16.3895C79.7519 16.1914 79.517 15.9292 79.3484 15.603C79.1798 15.2651 79.0955 14.8806 79.0955 14.4494C79.0955 13.5173 79.4508 12.7949 80.1614 12.2822C80.872 11.7695 81.7271 11.5132 82.7267 11.5132C84.4972 11.5132 85.7378 12.189 86.4484 13.5406L83.9191 14.6417C83.6541 14.1407 83.2808 13.8902 82.799 13.8902C82.3534 13.8902 82.1306 14.03 82.1306 14.3096Z" fill="white"/>
<path d="M74.7567 16.4069V11.7578H77.7557V20.4967H74.7567V19.6228C74.2148 20.3685 73.3777 20.7414 72.2455 20.7414C71.2459 20.7414 70.4389 20.4151 69.8247 19.7626C69.2225 19.0985 68.9214 18.1721 68.9214 16.9837V11.7578H71.9204V16.6166C71.9204 17.0594 72.0408 17.4031 72.2817 17.6478C72.5226 17.8808 72.8538 17.9974 73.2753 17.9974C73.745 17.9974 74.1064 17.8634 74.3593 17.5954C74.6243 17.3157 74.7567 16.9196 74.7567 16.4069Z" fill="white"/>
<path d="M64.037 20.7414C62.664 20.7414 61.5198 20.2987 60.6045 19.4131C59.6891 18.5276 59.2314 17.4323 59.2314 16.1273C59.2314 14.8223 59.6891 13.727 60.6045 12.8415C61.5198 11.956 62.664 11.5132 64.037 11.5132C64.9283 11.5132 65.7352 11.7171 66.4579 12.1249C67.1926 12.5211 67.7586 13.0687 68.1561 13.7678L65.5907 15.201C65.2655 14.63 64.7416 14.3446 64.019 14.3446C63.5131 14.3446 63.0916 14.5135 62.7543 14.8514C62.4171 15.1777 62.2485 15.603 62.2485 16.1273C62.2485 16.6516 62.4171 17.0827 62.7543 17.4207C63.0916 17.7469 63.5131 17.91 64.019 17.91C64.7536 17.91 65.2776 17.6187 65.5907 17.0361L68.1561 18.4693C67.7586 19.1684 67.1926 19.7219 66.4579 20.1297C65.7352 20.5375 64.9283 20.7414 64.037 20.7414Z" fill="white"/>
<path d="M54.9118 11.5132C55.9114 11.5132 56.7124 11.8453 57.3146 12.5094C57.9288 13.1619 58.2359 14.0824 58.2359 15.2709V20.4967H55.237V15.6379C55.237 15.1952 55.1165 14.8573 54.8756 14.6242C54.6348 14.3795 54.3035 14.2572 53.882 14.2572C53.4123 14.2572 53.0449 14.397 52.78 14.6767C52.527 14.9446 52.4006 15.335 52.4006 15.8477V20.4967H49.4016V11.7579H52.4006V12.6318C52.9426 11.886 53.7796 11.5132 54.9118 11.5132Z" fill="white"/>
<path d="M43.9848 16.8264L45.3939 11.7578H48.7181L45.6288 20.3569C45.147 21.6735 44.4665 22.6231 43.5873 23.2057C42.7081 23.7883 41.5699 24.0505 40.1728 23.9922V21.2657C40.8112 21.2657 41.2929 21.19 41.6181 21.0385C41.9433 20.887 42.2083 20.6132 42.413 20.217L38.7998 11.7578H42.1601L43.9848 16.8264Z" fill="white"/>
<path d="M34.2575 20.7587C32.9447 20.7587 31.8426 20.4907 30.9514 19.9548C30.0722 19.4188 29.4519 18.6731 29.0906 17.7176L31.8547 16.1621C32.3244 17.2457 33.1554 17.7875 34.3478 17.7875C35.3354 17.7875 35.8292 17.5137 35.8292 16.9661C35.8292 16.6165 35.5462 16.3252 34.9801 16.0922C34.7874 16.0223 34.2575 15.865 33.3903 15.6203C32.1618 15.2824 31.2284 14.8105 30.5901 14.2046C29.9517 13.5987 29.6326 12.7947 29.6326 11.7927C29.6326 10.6624 30.0481 9.74777 30.8791 9.04866C31.7342 8.34955 32.7821 8 34.0226 8C35.0825 8 36.0219 8.24469 36.8409 8.73406C37.6599 9.21179 38.2862 9.89925 38.7198 10.7964L36.0099 12.3345C35.6124 11.4256 34.956 10.9712 34.0407 10.9712C33.6673 10.9712 33.3783 11.0469 33.1735 11.1984C32.9688 11.3382 32.8664 11.5305 32.8664 11.7752C32.8664 12.0432 33.0109 12.2704 33.3 12.4568C33.6011 12.6432 34.1792 12.8588 35.0343 13.1035C35.6727 13.2899 36.1665 13.453 36.5157 13.5929C36.9132 13.756 37.3227 13.9774 37.7442 14.257C38.6235 14.8163 39.0631 15.7077 39.0631 16.9311C39.0631 18.1313 38.6235 19.0692 37.7442 19.745C36.865 20.4208 35.7028 20.7587 34.2575 20.7587Z" fill="white"/>
<path d="M11.6509 17.5761C11.2367 18.0584 9.99025 18.7943 7.57802 18.7077C4.83535 18.6092 3.17016 17.8215 1.67896 15.3598H6.4963C4.80966 15.3196 -0.0961854 13.0837 0.00143623 9.14197L3.46402 9.94462C2.00395 9.27768 -1.1604 6.87645 0.653808 3.84755L4.83535 6.89231C3.91375 5.98938 2.0621 2.4379 4.14968 0L14.0119 12.1893C14.9749 11.4711 17.3234 10.2624 19.0134 11.1736C21.1258 12.3125 20.753 14.2825 20.287 15.0213C20.5459 15.4419 21.0823 16.468 21.1569 17.2067C20.929 17.2273 19.9872 16.8128 18.7446 15.6554C18.7032 16.4454 18.799 17.632 18.0814 19.6385C17.5692 21.0708 17.1773 21.7977 15.8447 22.8706C15.0163 23.5375 13.443 24.6418 12.3777 26.2892C11.1043 28.2585 10.1248 31.0154 7.96983 32C8.24261 30.6542 8.45959 29.8338 8.45959 28.3569C8.45959 28.3569 8.08745 28.2585 6.58564 30.1292C5.08384 32 3.26811 31.7046 3.26811 31.7046C3.26811 31.7046 5.25286 28.5538 7.19906 25.5015C9.14525 22.4492 9.83092 20.9723 9.83092 20.9723C10.6145 19.6923 11.5266 17.9948 11.6509 17.5761Z" fill="#8AD9FF"/>
</svg>
