<svg width="99" height="96" viewBox="0 0 99 96" fill="none" xmlns="http://www.w3.org/2000/svg">
<path d="M91.2889 79.3875C91.2889 79.6472 91.5066 79.8669 91.9419 80.0467C92.398 80.2065 93.082 80.3862 93.9941 80.586C94.616 80.7058 95.1861 80.8656 95.7043 81.0654C96.2433 81.2451 96.7719 81.5148 97.2901 81.8743C97.8291 82.2139 98.2437 82.6933 98.5339 83.3125C98.8448 83.9117 99.0003 84.6009 99.0003 85.3799C99.0003 87.1177 98.337 88.386 97.0103 89.185C95.6629 90.004 94.0874 90.4135 92.284 90.4135C88.8014 90.4135 86.4797 89.225 85.3188 86.848L89.8275 84.6608C90.2214 85.7594 91.0298 86.3087 92.2529 86.3087C93.1857 86.3087 93.6521 86.039 93.6521 85.4997C93.6521 85.2401 93.4344 85.0303 92.9991 84.8705C92.5845 84.6908 91.9108 84.491 90.978 84.2713C90.3561 84.1514 89.7861 83.9916 89.2678 83.7919C88.7703 83.5722 88.2521 83.2925 87.7131 82.953C87.1949 82.6134 86.7906 82.164 86.5004 81.6047C86.2102 81.0254 86.0651 80.3663 86.0651 79.6272C86.0651 78.0292 86.6766 76.7908 87.8997 75.9119C89.1227 75.0331 90.5945 74.5936 92.315 74.5936C95.3623 74.5936 97.4974 75.7521 98.7205 78.0692L94.3673 79.9568C93.9112 79.0979 93.2686 78.6684 92.4394 78.6684C91.6724 78.6684 91.2889 78.9081 91.2889 79.3875Z" fill="white"/>
<path d="M78.5971 82.9829V75.0131H83.7588V89.994H78.5971V88.4959C77.6643 89.7742 76.2236 90.4134 74.275 90.4134C72.5545 90.4134 71.1656 89.8541 70.1084 88.7356C69.0719 87.597 68.5537 86.009 68.5537 83.9716V75.0131H73.7154V83.3424C73.7154 84.1015 73.9226 84.6907 74.3372 85.1102C74.7518 85.5097 75.3219 85.7094 76.0474 85.7094C76.8559 85.7094 77.4778 85.4797 77.9131 85.0203C78.3691 84.5409 78.5971 83.8618 78.5971 82.9829Z" fill="white"/>
<path d="M60.148 90.4135C57.7849 90.4135 55.8156 89.6544 54.2401 88.1364C52.6647 86.6183 51.877 84.7407 51.877 82.5035C51.877 80.2664 52.6647 78.3888 54.2401 76.8707C55.8156 75.3527 57.7849 74.5936 60.148 74.5936C61.682 74.5936 63.0709 74.9432 64.3146 75.6423C65.5791 76.3214 66.5534 77.2602 67.2375 78.4587L62.8221 80.9156C62.2624 79.9368 61.3607 79.4474 60.1169 79.4474C59.2463 79.4474 58.5208 79.7371 57.9403 80.3163C57.3599 80.8756 57.0697 81.6047 57.0697 82.5035C57.0697 83.4024 57.3599 84.1415 57.9403 84.7207C58.5208 85.28 59.2463 85.5596 60.1169 85.5596C61.3814 85.5596 62.2832 85.0603 62.8221 84.0616L67.2375 86.5184C66.5534 87.7169 65.5791 88.6657 64.3146 89.3648C63.0709 90.0639 61.682 90.4135 60.148 90.4135Z" fill="white"/>
<path d="M44.4417 74.5936C46.1623 74.5936 47.5408 75.1629 48.5773 76.3015C49.6345 77.42 50.1631 78.998 50.1631 81.0354V89.994H45.0014V81.6646C45.0014 80.9056 44.7941 80.3263 44.3796 79.9268C43.965 79.5074 43.3949 79.2976 42.6694 79.2976C41.8609 79.2976 41.2287 79.5373 40.7726 80.0167C40.3373 80.4761 40.1197 81.1453 40.1197 82.0242V89.994H34.958V75.0131H40.1197V76.5112C41.0525 75.2328 42.4932 74.5936 44.4417 74.5936Z" fill="white"/>
<path d="M25.6355 83.702L28.0608 75.0131H33.7822L28.465 89.7543C27.6359 92.0114 26.4646 93.6393 24.9514 94.638C23.4381 95.6368 21.4792 96.0862 19.0746 95.9863V91.3123C20.1732 91.3123 21.0024 91.1825 21.5621 90.9228C22.1218 90.6631 22.5779 90.1937 22.9303 89.5146L16.7114 75.0131H22.495L25.6355 83.702Z" fill="white"/>
<path d="M8.89295 90.4435C6.63343 90.4435 4.73669 89.9841 3.20271 89.0653C1.68945 88.1465 0.621884 86.8681 0 85.2302L4.75742 82.5636C5.56587 84.4212 6.9962 85.35 9.04842 85.35C10.7482 85.35 11.5981 84.8806 11.5981 83.9418C11.5981 83.3426 11.111 82.8432 10.1367 82.4437C9.80505 82.3239 8.89295 82.0542 7.40043 81.6348C5.28602 81.0555 3.67948 80.2465 2.58082 79.2079C1.48216 78.1692 0.932827 76.7909 0.932827 75.0731C0.932827 73.1356 1.64799 71.5676 3.07833 70.3691C4.55012 69.1706 6.35359 68.5714 8.48872 68.5714C10.3129 68.5714 11.9298 68.9909 13.3394 69.8298C14.749 70.6488 15.827 71.8273 16.5732 73.3653L11.9091 76.0019C11.225 74.4439 10.0953 73.6649 8.51982 73.6649C7.8772 73.6649 7.3797 73.7948 7.02729 74.0544C6.67489 74.2941 6.49869 74.6237 6.49869 75.0432C6.49869 75.5026 6.74745 75.8921 7.24495 76.2117C7.76319 76.5313 8.75821 76.9008 10.23 77.3203C11.3287 77.6399 12.1786 77.9195 12.7797 78.1592C13.4638 78.4388 14.1686 78.8184 14.8941 79.2977C16.4074 80.2565 17.164 81.7846 17.164 83.8819C17.164 85.9393 16.4074 87.5472 14.8941 88.7057C13.3809 89.8643 11.3805 90.4435 8.89295 90.4435Z" fill="white"/>
<path d="M51.9146 30.1305C51.2017 30.9572 49.0564 32.2188 44.9046 32.0703C40.1841 31.9015 37.3181 30.5512 34.7515 26.3312H43.0428C40.1399 26.2622 31.6963 22.4293 31.8643 15.672L37.8239 17.0479C35.3109 15.9046 29.8646 11.7882 32.9871 6.59579L40.1841 11.8154C38.5979 10.2675 35.411 4.17926 39.004 0L55.9781 20.896C57.6356 19.6648 61.6778 17.5927 64.5864 19.1547C68.2222 21.1071 67.5806 24.4843 66.7786 25.7507C67.2241 26.4719 68.1473 28.2308 68.2757 29.4973C67.8836 29.5325 66.2625 28.8219 64.1238 26.8378C64.0525 28.1922 64.2175 30.2263 62.9824 33.666C62.1007 36.1213 61.4264 37.3674 59.1327 39.2067C57.7069 40.35 54.999 42.2431 53.1655 45.0673C50.9738 48.4431 49.2879 53.1692 45.579 54.8571C46.0485 52.55 46.4219 51.1437 46.4219 48.6119C46.4219 48.6119 45.7814 48.4431 43.1966 51.6501C40.6118 54.8571 37.4867 54.3508 37.4867 54.3508C37.4867 54.3508 40.9027 48.9494 44.2524 43.7169C47.602 38.4844 48.7822 35.9525 48.7822 35.9525C50.1309 33.7582 51.7007 30.8481 51.9146 30.1305Z" fill="white"/>
</svg>
