<svg width="20" height="20" viewBox="0 0 20 20" fill="none" xmlns="http://www.w3.org/2000/svg">
<path d="M3.33317 11.6667L4.64538 16.9155C4.68228 17.0631 4.70073 17.137 4.72256 17.2014C4.93581 17.831 5.50277 18.2736 6.16527 18.3278C6.23309 18.3334 6.30917 18.3334 6.46133 18.3334C6.65187 18.3334 6.74714 18.3334 6.8274 18.3256C7.62067 18.2487 8.24845 17.6209 8.32539 16.8276C8.33317 16.7474 8.33317 16.6521 8.33317 16.4615V4.58338M15.4165 11.25C17.0273 11.25 18.3332 9.94421 18.3332 8.33338C18.3332 6.72255 17.0273 5.41671 15.4165 5.41671M8.5415 4.58338H5.4165C3.34543 4.58338 1.6665 6.26232 1.6665 8.33338C1.66651 10.4045 3.34544 12.0834 5.4165 12.0834H8.54151C10.0135 12.0834 11.8142 12.8725 13.2034 13.6298C14.0139 14.0715 14.4191 14.2924 14.6845 14.2599C14.9306 14.2298 15.1167 14.1193 15.2609 13.9176C15.4165 13.7002 15.4165 13.2651 15.4165 12.3948V4.27195C15.4165 3.40171 15.4165 2.96659 15.2609 2.74912C15.1167 2.54747 14.9306 2.43697 14.6845 2.40682C14.4191 2.37432 14.0139 2.59521 13.2034 3.03701C11.8142 3.79431 10.0135 4.58338 8.5415 4.58338Z" stroke="white" stroke-width="1.66667" stroke-linecap="round" stroke-linejoin="round"/>
</svg>
