<svg width="48" height="48" viewBox="0 0 48 48" fill="none" xmlns="http://www.w3.org/2000/svg">
<circle opacity="0.2" cx="24" cy="24" r="24" fill="#C9EDFF"/>
<path fill-rule="evenodd" clip-rule="evenodd" d="M22.4375 14C19.6536 14 17.3622 16.0693 17.0144 18.757C15.2063 19.1068 14 20.7324 14 22.5938C14 24.7511 15.7489 26.5 17.9063 26.5H20.094V29.3125C20.094 29.6809 19.8382 29.9915 19.4937 30.0729L19.4791 30.0765L18.3079 30.3769C17.8896 29.7361 17.1661 29.3125 16.3438 29.3125C15.0493 29.3125 14 30.3618 14 31.6562C14 32.9507 15.0493 34 16.3438 34C17.5573 34 18.5555 33.0777 18.6754 31.8957L19.8608 31.5916C20.8905 31.3446 21.6565 30.4189 21.6565 29.3125V26.5H24C24.4315 26.5 24.7812 26.1502 24.7812 25.7188C24.7812 25.2873 24.4315 24.9375 24 24.9375H17.9063C16.6119 24.9375 15.5625 23.8881 15.5625 22.5938C15.5625 21.2458 16.5073 20.25 17.75 20.25C18.1815 20.25 18.5312 19.9002 18.5312 19.4688C18.5312 17.3064 20.2753 15.5625 22.4375 15.5625C23.6749 15.5625 24.7653 16.1344 25.4664 17.0171C25.6782 17.2838 26.0382 17.3825 26.3564 17.2613C26.5915 17.1717 26.8406 17.125 27.125 17.125C28.4123 17.125 29.4688 18.1814 29.4688 19.4688C29.4688 19.9002 29.8185 20.25 30.25 20.25C31.4927 20.25 32.4375 21.2457 32.4375 22.5938C32.4375 23.8881 31.3881 24.9375 30.0938 24.9375H27.125C26.6935 24.9375 26.3438 25.2873 26.3438 25.7188V29.3125C26.3438 30.419 27.1098 31.3446 28.1395 31.5916L29.3246 31.8957C29.4445 33.0776 30.4427 34 31.6562 34C32.9507 34 34 32.9507 34 31.6562C34 30.3618 32.9507 29.3125 31.6562 29.3125C30.8339 29.3125 30.1105 29.736 29.6922 30.3769L28.5212 30.0765L28.5066 30.0729C28.162 29.9915 27.9063 29.6809 27.9063 29.3125V26.5H30.0938C32.2511 26.5 34 24.7511 34 22.5938C34 20.7253 32.7846 19.0946 30.9652 18.7531C30.6271 16.9421 29.0309 15.5625 27.125 15.5625C26.8536 15.5625 26.5914 15.5891 26.3364 15.6431C25.3554 14.6325 23.9739 14 22.4375 14ZM15.5625 31.6562C15.5625 31.2248 15.9123 30.875 16.3438 30.875C16.7752 30.875 17.125 31.2248 17.125 31.6562C17.125 32.0877 16.7752 32.4375 16.3438 32.4375C15.9123 32.4375 15.5625 32.0877 15.5625 31.6562ZM30.875 31.6562C30.875 31.2248 31.2248 30.875 31.6562 30.875C32.0877 30.875 32.4375 31.2248 32.4375 31.6562C32.4375 32.0877 32.0877 32.4375 31.6562 32.4375C31.2248 32.4375 30.875 32.0877 30.875 31.6562Z" fill="#C9EDFF"/>
<path d="M24.7812 28.5313C24.7812 28.0998 24.4315 27.75 24 27.75C23.5685 27.75 23.2188 28.0998 23.2188 28.5313V33.2188C23.2188 33.6502 23.5685 34 24 34C24.4315 34 24.7812 33.6502 24.7812 33.2188V28.5313Z" fill="#C9EDFF"/>
</svg>
