<svg width="24" height="24" viewBox="0 0 24 24" fill="none" xmlns="http://www.w3.org/2000/svg">
<path d="M12.0001 2.82837C6.94255 2.82837 2.82861 6.94287 2.82861 12.0001C2.82861 17.0574 6.94255 21.1716 12.0001 21.1716C17.0574 21.1716 21.1716 17.0574 21.1716 12.0001C21.1716 6.94292 17.0574 2.82837 12.0001 2.82837ZM12.0001 19.7249C7.74055 19.7249 4.27532 16.2594 4.27532 12.0001C4.27532 7.74059 7.74055 4.27535 12.0001 4.27535C16.2597 4.27535 19.7249 7.74059 19.7249 12.0001C19.7249 16.2594 16.2597 19.7249 12.0001 19.7249Z" fill="#C9EDFF"/>
<path d="M16.3412 8.17325L10.4646 14.1607L7.55285 12.0522C7.18338 11.7846 6.66635 11.8673 6.39822 12.2368C6.13066 12.6068 6.21335 13.1235 6.5831 13.3914L10.0714 15.9172C10.217 16.0227 10.3869 16.0743 10.5562 16.0743C10.7717 16.0743 10.9858 15.9905 11.1461 15.8268L17.5211 9.33153C17.8411 9.00575 17.8363 8.48234 17.51 8.16242C17.1848 7.84278 16.6611 7.84751 16.3412 8.17325Z" fill="#C9EDFF"/>
</svg>
