<svg width="20" height="20" viewBox="0 0 20 20" fill="none" xmlns="http://www.w3.org/2000/svg">
<g clip-path="url(#clip0_651_1962)">
<path d="M14.9998 8.33329L12.1379 11.1952C11.9729 11.3602 11.8904 11.4427 11.7953 11.4736C11.7116 11.5008 11.6214 11.5008 11.5377 11.4736C11.4426 11.4427 11.3601 11.3602 11.1951 11.1952L8.80457 8.8047C8.63957 8.63969 8.55706 8.55719 8.46193 8.52627C8.37824 8.49908 8.2881 8.49908 8.20441 8.52627C8.10928 8.55719 8.02677 8.63969 7.86177 8.8047L4.99984 11.6666M18.3332 9.99996C18.3332 14.6023 14.6022 18.3333 9.99984 18.3333C5.39746 18.3333 1.6665 14.6023 1.6665 9.99996C1.6665 5.39759 5.39746 1.66663 9.99984 1.66663C14.6022 1.66663 18.3332 5.39759 18.3332 9.99996Z" stroke="white" stroke-width="1.66667" stroke-linecap="round" stroke-linejoin="round"/>
</g>
<defs>
<clipPath id="clip0_651_1962">
<rect width="20" height="20" fill="white"/>
</clipPath>
</defs>
</svg>
