<svg width="40" height="40" viewBox="0 0 40 40" fill="none" xmlns="http://www.w3.org/2000/svg">
<circle opacity="0.2" cx="20" cy="20" r="20" fill="#C9EDFF"/>
<mask id="mask0_651_1989" style="mask-type:luminance" maskUnits="userSpaceOnUse" x="10" y="10" width="20" height="20">
<path d="M29.7332 10H10.5332V30H29.7332V10Z" fill="white"/>
</mask>
<g mask="url(#mask0_651_1989)">
<path d="M25.7755 14.4386C24.7132 13.927 23.5741 13.5501 22.3831 13.3342C22.3614 13.3301 22.3398 13.3405 22.3286 13.3613C22.182 13.6348 22.0198 13.9915 21.9061 14.272C20.6251 14.0707 19.3507 14.0707 18.0959 14.272C17.9822 13.9853 17.8141 13.6348 17.6669 13.3613C17.6557 13.3412 17.6341 13.3307 17.6124 13.3342C16.422 13.5494 15.2829 13.9263 14.2199 14.4386C14.2107 14.4427 14.2028 14.4497 14.1976 14.4587C12.0369 17.8467 11.445 21.1515 11.7354 24.4152C11.7367 24.4312 11.7452 24.4465 11.7571 24.4562C13.1826 25.555 14.5635 26.2221 15.9188 26.6642C15.9405 26.6712 15.9634 26.6628 15.9773 26.6441C16.2978 26.1846 16.5836 25.7001 16.8286 25.1906C16.8431 25.1607 16.8293 25.1254 16.7997 25.1136C16.3465 24.9331 15.9148 24.7131 15.4996 24.4632C15.4668 24.443 15.4642 24.3937 15.4944 24.3701C15.5818 24.3014 15.6691 24.2299 15.7526 24.1577C15.7677 24.1445 15.7887 24.1418 15.8065 24.1501C18.5341 25.4572 21.487 25.4572 24.1825 24.1501C24.2002 24.1411 24.2212 24.1439 24.237 24.1571C24.3204 24.2292 24.4078 24.3014 24.4958 24.3701C24.526 24.3937 24.5241 24.443 24.4912 24.4632C24.076 24.7179 23.6444 24.9331 23.1904 25.1128C23.1609 25.1246 23.1477 25.1607 23.1623 25.1906C23.4125 25.6994 23.6983 26.1839 24.0129 26.6434C24.0261 26.6628 24.0498 26.6712 24.0714 26.6642C25.4332 26.2221 26.8141 25.555 28.2397 24.4562C28.2522 24.4465 28.2601 24.4319 28.2614 24.416C28.6089 20.6427 27.6793 17.365 25.7972 14.4594C25.7926 14.4497 25.7847 14.4427 25.7755 14.4386ZM17.236 22.428C16.4148 22.428 15.7381 21.6367 15.7381 20.6649C15.7381 19.6931 16.4016 18.9018 17.236 18.9018C18.0768 18.9018 18.7469 19.7001 18.7338 20.6649C18.7338 21.6367 18.0703 22.428 17.236 22.428ZM22.774 22.428C21.9528 22.428 21.2761 21.6367 21.2761 20.6649C21.2761 19.6931 21.9396 18.9018 22.774 18.9018C23.6148 18.9018 24.2849 19.7001 24.2718 20.6649C24.2718 21.6367 23.6148 22.428 22.774 22.428Z" fill="#C9EDFF"/>
</g>
</svg>
