<svg width="48" height="48" viewBox="0 0 48 48" fill="none" xmlns="http://www.w3.org/2000/svg">
<circle opacity="0.2" cx="24" cy="24" r="24" fill="#C9EDFF"/>
<path d="M16.9999 25C16.9999 26.6484 17.6647 28.1415 18.7407 29.226C18.8444 29.3305 18.8963 29.3828 18.927 29.4331C18.9562 29.4811 18.9732 29.5224 18.9863 29.5771C18.9999 29.6343 18.9999 29.6995 18.9999 29.8298V32.2C18.9999 32.48 18.9999 32.62 19.0544 32.727C19.1024 32.8211 19.1789 32.8976 19.2729 32.9455C19.3799 33 19.5199 33 19.7999 33H21.6999C21.98 33 22.12 33 22.2269 32.9455C22.321 32.8976 22.3975 32.8211 22.4454 32.727C22.4999 32.62 22.4999 32.48 22.4999 32.2V31.8C22.4999 31.52 22.4999 31.38 22.5544 31.273C22.6024 31.1789 22.6789 31.1024 22.7729 31.0545C22.8799 31 23.0199 31 23.2999 31H24.6999C24.98 31 25.12 31 25.2269 31.0545C25.321 31.1024 25.3975 31.1789 25.4454 31.273C25.4999 31.38 25.4999 31.52 25.4999 31.8V32.2C25.4999 32.48 25.4999 32.62 25.5544 32.727C25.6024 32.8211 25.6789 32.8976 25.7729 32.9455C25.8799 33 26.0199 33 26.2999 33H28.2C28.48 33 28.62 33 28.727 32.9455C28.8211 32.8976 28.8976 32.8211 28.9455 32.727C29 32.62 29 32.48 29 32.2V31.2243C29 31.0223 29 30.9212 29.0288 30.8401C29.0563 30.7624 29.0911 30.708 29.15 30.6502C29.2114 30.59 29.3155 30.5417 29.5237 30.445C30.5059 29.989 31.344 29.2751 31.9511 28.3902C32.0579 28.2346 32.1112 28.1568 32.1683 28.1108C32.2228 28.0668 32.2717 28.0411 32.3387 28.021C32.4089 28 32.4922 28 32.6587 28H33.2C33.48 28 33.62 28 33.727 27.9455C33.8211 27.8976 33.8976 27.8211 33.9455 27.727C34 27.62 34 27.48 34 27.2V23.7857C34 23.5192 34 23.3859 33.9505 23.283C33.9013 23.181 33.819 23.0987 33.717 23.0495C33.6141 23 33.4808 23 33.2143 23C33.0213 23 32.9248 23 32.8471 22.9738C32.7633 22.9456 32.7045 22.908 32.6437 22.8438C32.5874 22.7842 32.5413 22.6846 32.4493 22.4855C32.1538 21.8462 31.7492 21.2678 31.2593 20.774C31.1555 20.6695 31.1036 20.6172 31.073 20.5669C31.0437 20.5189 31.0267 20.4776 31.0137 20.4229C31 20.3657 31 20.3005 31 20.1702V19.0606C31 18.7005 31 18.5205 30.925 18.3995C30.8593 18.2935 30.7564 18.2159 30.6365 18.1818C30.4995 18.143 30.3264 18.1924 29.9802 18.2914L27.6077 18.9692C27.5673 18.9807 27.5472 18.9865 27.5267 18.9905C27.5085 18.9941 27.4901 18.9967 27.4716 18.9983C27.4508 19 27.4298 19 27.3879 19H26.959M16.9999 25C16.9999 22.6959 18.2986 20.6952 20.204 19.6899M16.9999 25H16C14.8954 25 14 24.1046 14 23C14 22.2597 14.4022 21.6134 15 21.2676M27 18.5C27 20.433 25.433 22 23.5 22C21.567 22 20 20.433 20 18.5C20 16.567 21.567 15 23.5 15C25.433 15 27 16.567 27 18.5Z" stroke="#C9EDFF" stroke-width="2" stroke-linecap="round" stroke-linejoin="round"/>
</svg>
