<svg width="20" height="20" viewBox="0 0 20 20" fill="none" xmlns="http://www.w3.org/2000/svg">
<path d="M18.5346 10.9217L14.3998 14.4051C14.4319 14.5355 14.4481 14.6694 14.448 14.8038C14.448 15.7216 13.7014 16.4683 12.7836 16.4683H7.27153C7.03965 16.4683 6.85172 16.2803 6.85172 16.0485C6.85172 15.8166 7.03965 15.6286 7.27153 15.6286H12.7836C13.2384 15.6286 13.6084 15.2586 13.6084 14.8038C13.6084 14.716 13.5946 14.6313 13.5691 14.5519C13.5235 14.4971 13.4927 14.4315 13.4795 14.3614C13.3329 14.1317 13.0757 13.9789 12.7836 13.9789H10.1418C9.55469 13.9789 9.00274 13.7503 8.58762 13.3352L8.46707 13.2146C8.04266 12.7902 7.47828 12.5564 6.87801 12.5564H4.7591C3.97078 12.5564 3.22957 12.8626 2.67121 13.4188L0.0286737 16.2175C0.0190382 16.2275 0.0115365 16.2394 0.00662187 16.2524C0.00170725 16.2654 -0.000518221 16.2793 7.99368e-05 16.2932C0.000743999 16.3131 0.00715025 16.342 0.0337518 16.3666L3.89637 19.9322C3.91627 19.9506 3.94254 19.9606 3.96966 19.96C3.99677 19.9595 4.02261 19.9484 4.04176 19.9292L4.14242 19.8285C4.55754 19.4134 5.10949 19.1848 5.69656 19.1848H12.225C12.5878 19.1848 12.9289 19.0435 13.1854 18.787L19.739 12.2333C19.9073 12.0651 20.0001 11.8413 20.0001 11.6032C20.0001 11.3652 19.9074 11.1413 19.739 10.9731C19.4091 10.6432 18.8913 10.6212 18.5346 10.9217Z" fill="white"/>
<path d="M11.8946 11.647C15.0946 11.647 17.698 9.04352 17.698 5.84348C17.698 2.64345 15.0946 0.0400085 11.8946 0.0400085C8.69449 0.0400085 6.09105 2.64345 6.09105 5.84348C6.09105 9.04352 8.69449 11.647 11.8946 11.647ZM9.51886 7.4438C9.51886 7.21196 9.70679 7.02399 9.93867 7.02399C10.1705 7.02399 10.3585 7.21196 10.3585 7.4438V7.62161C10.3585 8.07641 10.7285 8.44645 11.1833 8.44645H12.6058C13.0606 8.44645 13.4307 8.07641 13.4307 7.62161V7.08817C13.4307 6.63333 13.0606 6.26329 12.6058 6.26329H11.0055C10.1858 6.26329 9.51886 5.59637 9.51886 4.77669V4.0654C9.51886 3.14763 10.2655 2.40099 11.1833 2.40099H11.4748V1.93169C11.4748 1.69985 11.6627 1.51188 11.8946 1.51188C12.1264 1.51188 12.3144 1.69985 12.3144 1.93169V2.40099H12.6058C13.5236 2.40099 14.2703 3.14763 14.2703 4.0654V4.24321C14.2703 4.47505 14.0823 4.66302 13.8505 4.66302C13.6186 4.66302 13.4307 4.47505 13.4307 4.24321V4.0654C13.4307 3.61059 13.0606 3.24056 12.6058 3.24056H11.1833C10.7285 3.24056 10.3585 3.61059 10.3585 4.0654V4.77665C10.3585 5.13341 10.6487 5.42368 11.0055 5.42368H12.6058C13.5235 5.42368 14.2702 6.17036 14.2702 7.08813V7.62157C14.2702 8.53934 13.5235 9.28598 12.6058 9.28598H12.3143V9.75524C12.3143 9.98708 12.1264 10.175 11.8945 10.175C11.6627 10.175 11.4747 9.98708 11.4747 9.75524V9.28598H11.1833C10.2655 9.28598 9.51882 8.53934 9.51882 7.62157L9.51886 7.4438Z" fill="white"/>
</svg>
