<svg width="48" height="48" viewBox="0 0 48 48" fill="none" xmlns="http://www.w3.org/2000/svg">
<circle opacity="0.2" cx="24" cy="24" r="24" fill="#C9EDFF"/>
<path d="M31.0001 22L17.0001 22M31.0001 22L32.8642 25.1069C33.282 25.8032 33.4909 26.1514 33.5994 26.5262C33.6955 26.8582 33.7335 27.2045 33.7117 27.5495C33.6871 27.9389 33.5587 28.324 33.302 29.0944L33.0941 29.7179C32.7007 30.8981 32.504 31.4882 32.1392 31.9245C31.817 32.3098 31.4032 32.608 30.9358 32.7918C30.4066 33 29.7845 33 28.5404 33L19.4597 33C18.2157 33 17.5936 33 17.0643 32.7918C16.597 32.608 16.1832 32.3098 15.861 31.9245C15.4962 31.4882 15.2995 30.8981 14.9061 29.7179L14.6982 29.0944C14.4414 28.324 14.313 27.9389 14.2884 27.5495C14.2666 27.2044 14.3046 26.8582 14.4008 26.5261C14.5093 26.1514 14.7182 25.8032 15.1359 25.1069L17.0001 22M31.0001 22L31.4174 20.5396C31.6152 19.8472 31.7141 19.501 31.6364 19.2271C31.5683 18.9872 31.4131 18.7813 31.2011 18.65C30.9591 18.5 30.599 18.5 29.8789 18.5L18.1213 18.5C17.4012 18.5 17.0411 18.5 16.7991 18.65C16.5871 18.7813 16.4318 18.9872 16.3638 19.2271C16.2861 19.501 16.385 19.8472 16.5828 20.5396L17.0001 22M24.0001 18.5H20.4644C19.9434 18.5 19.4438 18.2893 19.0754 17.9142C18.707 17.5391 18.5001 17.0304 18.5001 16.5C18.5001 15.9696 18.707 15.4609 19.0754 15.0858C19.4438 14.7107 19.9434 14.5 20.4644 14.5C23.2144 14.5 24.0001 18.5 24.0001 18.5ZM24.0001 18.5H27.5358C28.0568 18.5 28.5564 18.2893 28.9248 17.9142C29.2931 17.5391 29.5001 17.0304 29.5001 16.5C29.5001 15.9696 29.2931 15.4609 28.9248 15.0858C28.5564 14.7107 28.0568 14.5 27.5358 14.5C24.7858 14.5 24.0001 18.5 24.0001 18.5Z" stroke="#C9EDFF" stroke-width="2" stroke-linecap="round" stroke-linejoin="round"/>
</svg>
