<svg width="48" height="48" viewBox="0 0 48 48" fill="none" xmlns="http://www.w3.org/2000/svg">
    <circle opacity="0.2" cx="24" cy="24" r="24" fill="#C9EDFF" />
    <g clip-path="url(#clip0_651_568)">
        <path
            d="M24 14C18.475 14 14 18.475 14 24C14 29.525 18.475 34 24 34C29.525 34 34 29.525 34 24C34 18.475 29.525 14 24 14ZM25.415 30.09V32H22.75V30.07C21.045 29.705 19.585 28.61 19.48 26.665H21.435C21.535 27.715 22.255 28.53 24.085 28.53C26.05 28.53 26.485 27.55 26.485 26.94C26.485 26.115 26.04 25.33 23.82 24.8C21.34 24.205 19.64 23.18 19.64 21.13C19.64 19.415 21.025 18.295 22.75 17.92V16H25.415V17.945C27.275 18.4 28.205 19.805 28.27 21.33H26.3C26.245 20.22 25.66 19.465 24.08 19.465C22.58 19.465 21.68 20.14 21.68 21.11C21.68 21.955 22.33 22.495 24.345 23.02C26.365 23.545 28.525 24.405 28.525 26.93C28.525 28.755 27.145 29.76 25.415 30.09Z"
            fill="#C9EDFF" />
    </g>
    <defs>
        <clipPath id="clip0_651_568">
            <rect width="24" height="24" fill="white" transform="translate(12 12)" />
        </clipPath>
    </defs>
</svg>
