<svg width="48" height="48" viewBox="0 0 48 48" fill="none" xmlns="http://www.w3.org/2000/svg">
<circle opacity="0.2" cx="24" cy="24" r="24" fill="#C9EDFF"/>
<path d="M30.9998 22L16.9998 22M30.9998 22L32.864 25.1069C33.2818 25.8032 33.4907 26.1514 33.5992 26.5262C33.6953 26.8582 33.7333 27.2045 33.7115 27.5495C33.6869 27.9389 33.5585 28.324 33.3017 29.0944L33.0939 29.7179C32.7005 30.8981 32.5038 31.4882 32.1389 31.9245C31.8167 32.3098 31.403 32.608 30.9356 32.7918C30.4063 33 29.7843 33 28.5402 33L19.4595 33C18.2154 33 17.5934 33 17.0641 32.7918C16.5967 32.608 16.183 32.3098 15.8608 31.9245C15.4959 31.4882 15.2992 30.8981 14.9058 29.7179L14.698 29.0944C14.4412 28.324 14.3128 27.9389 14.2882 27.5495C14.2664 27.2044 14.3044 26.8582 14.4005 26.5261C14.509 26.1514 14.7179 25.8032 15.1357 25.1069L16.9998 22M30.9998 22L31.4171 20.5396C31.6149 19.8472 31.7139 19.501 31.6362 19.2271C31.5681 18.9872 31.4128 18.7813 31.2008 18.65C30.9588 18.5 30.5988 18.5 29.8787 18.5L18.121 18.5C17.4009 18.5 17.0409 18.5 16.7989 18.65C16.5869 18.7813 16.4316 18.9872 16.3635 19.2271C16.2858 19.501 16.3847 19.8472 16.5826 20.5396L16.9998 22M23.9998 18.5H20.4641C19.9432 18.5 19.4435 18.2893 19.0752 17.9142C18.7068 17.5391 18.4998 17.0304 18.4998 16.5C18.4998 15.9696 18.7068 15.4609 19.0752 15.0858C19.4435 14.7107 19.9432 14.5 20.4641 14.5C23.2141 14.5 23.9998 18.5 23.9998 18.5ZM23.9998 18.5H27.5356C28.0565 18.5 28.5561 18.2893 28.9245 17.9142C29.2929 17.5391 29.4998 17.0304 29.4998 16.5C29.4998 15.9696 29.2929 15.4609 28.9245 15.0858C28.5561 14.7107 28.0565 14.5 27.5356 14.5C24.7856 14.5 23.9998 18.5 23.9998 18.5Z" stroke="#C9EDFF" stroke-width="2" stroke-linecap="round" stroke-linejoin="round"/>
</svg>
