<svg width="40" height="40" viewBox="0 0 40 40" fill="none" xmlns="http://www.w3.org/2000/svg">
<circle opacity="0.2" cx="20" cy="20" r="20" fill="#C9EDFF"/>
<path d="M28.9997 19.7251C28.9572 18.556 27.9926 17.6431 26.8403 17.6828C26.3296 17.7008 25.844 17.9137 25.4753 18.2709C23.8514 17.145 21.9437 16.5279 19.9828 16.4847L20.9081 11.9562L23.961 12.6094C24.046 13.4068 24.7481 13.9843 25.5317 13.8975C26.3154 13.8111 26.8828 13.0965 26.7975 12.2991C26.7122 11.5016 26.0104 10.9242 25.2268 11.011C24.7764 11.0577 24.3722 11.3249 24.149 11.722L20.6529 11.011C20.4155 10.9568 20.1777 11.1084 20.1245 11.3539C20.1245 11.3574 20.1245 11.3574 20.1245 11.361L19.0714 16.3982C17.0857 16.4308 15.1533 17.0515 13.5081 18.1844C12.6713 17.3834 11.3523 17.4231 10.5652 18.2783C9.77807 19.1299 9.81706 20.4722 10.6574 21.2732C10.8207 21.4284 11.0083 21.5619 11.2175 21.6558C11.2033 21.8687 11.2033 22.0816 11.2175 22.2945C11.2175 25.5456 14.9406 28.1905 19.5323 28.1905C24.124 28.1905 27.8471 25.5491 27.8471 22.2945C27.8613 22.0816 27.8613 21.8687 27.8471 21.6558C28.5635 21.2913 29.0139 20.5406 28.9997 19.7251ZM14.7349 21.1793C14.7349 20.3783 15.3768 19.7251 16.1639 19.7251C16.951 19.7251 17.5929 20.3783 17.5929 21.1793C17.5929 21.9803 16.951 22.6335 16.1639 22.6335C15.3733 22.6261 14.7349 21.9803 14.7349 21.1793ZM23.0215 25.2278V25.1701C22.0074 25.9459 20.7664 26.3427 19.4968 26.2888C18.2272 26.343 16.9865 25.9459 15.9721 25.1701C15.8374 25.0039 15.8621 24.7552 16.0254 24.6181C16.1671 24.4991 16.3693 24.4991 16.5148 24.6181C17.3729 25.2568 18.419 25.5817 19.4825 25.531C20.5464 25.5888 21.5959 25.2785 22.4645 24.6472C22.6205 24.492 22.8757 24.4955 23.0284 24.6543C23.1809 24.813 23.1774 25.0726 23.0215 25.2278ZM22.8265 22.7381C22.8018 22.7381 22.7806 22.7381 22.7555 22.7381L22.7663 22.6839C21.9792 22.6839 21.3373 22.0306 21.3373 21.2296C21.3373 20.4287 21.9792 19.7754 22.7663 19.7754C23.5534 19.7754 24.1953 20.4287 24.1953 21.2296C24.227 22.031 23.6136 22.7055 22.8265 22.7381Z" fill="#C9EDFF"/>
</svg>
