<svg width="48" height="48" viewBox="0 0 48 48" fill="none" xmlns="http://www.w3.org/2000/svg">
<circle opacity="0.2" cx="24" cy="24" r="24" fill="#C9EDFF"/>
<path d="M31.0312 14C29.416 14 28.1016 15.3144 28.1016 16.9297C28.1016 17.5258 28.2825 18.1187 28.5897 18.5818L26.4449 20.7265C25.9095 20.3255 25.2773 20.0579 24.5859 19.9576V17.4077C25.2665 17.165 25.7578 16.5208 25.7578 15.7578C25.7578 14.7886 24.9692 14 24 14C23.0308 14 22.2422 14.7886 22.2422 15.7578C22.2422 16.5208 22.7335 17.165 23.4141 17.4077V19.9576C22.7227 20.0579 22.0905 20.3255 21.5551 20.7265L19.5664 18.7379C19.7722 18.3893 19.8984 17.988 19.8984 17.5547C19.8984 16.2621 18.8473 15.2109 17.5547 15.2109C16.2621 15.2109 15.2109 16.2621 15.2109 17.5547C15.2109 18.8473 16.2621 19.8984 17.5547 19.8984C17.988 19.8984 18.3893 19.7722 18.7379 19.5664L20.7265 21.5551C20.3255 22.0905 20.0579 22.7227 19.9576 23.4141H17.4077C17.165 22.7335 16.5208 22.2422 15.7578 22.2422C14.7886 22.2422 14 23.0308 14 24C14 24.9692 14.7886 25.7578 15.7578 25.7578C16.5208 25.7578 17.165 25.2665 17.4077 24.5859H19.9576C20.217 26.3753 21.6247 27.783 23.4141 28.0424V29.3566C22.4059 29.6186 21.6562 30.528 21.6562 31.6172C21.6562 32.9098 22.7074 34 24 34C25.2926 34 26.3438 32.9098 26.3438 31.6172C26.3438 30.528 25.5941 29.6186 24.5859 29.3566V28.0424C25.6231 27.8921 26.5266 27.3566 27.1613 26.5807L29.3192 28.3016C29.291 28.4263 29.2734 28.5546 29.2734 28.6875C29.2734 29.6567 30.062 30.4453 31.0312 30.4453C32.0005 30.4453 32.7891 29.6567 32.7891 28.6875C32.7891 27.7183 32.0005 26.9297 31.0312 26.9297C30.6234 26.9297 30.2524 27.075 29.954 27.3089L27.7839 25.5782C27.9874 25.0921 28.1016 24.5592 28.1016 24C28.1016 23.0807 27.7865 22.2399 27.2735 21.5551L29.4182 19.4103C29.8813 19.7175 30.4351 19.8984 31.0312 19.8984C32.6465 19.8984 34 18.545 34 16.9297C34 15.3144 32.6465 14 31.0312 14Z" fill="#C9EDFF"/>
</svg>
