<svg width="20" height="20" viewBox="0 0 20 20" fill="none" xmlns="http://www.w3.org/2000/svg">
<path d="M16.6668 4.16663C16.6668 5.54734 13.6821 6.66663 10.0002 6.66663C6.31826 6.66663 3.3335 5.54734 3.3335 4.16663M16.6668 4.16663C16.6668 2.78591 13.6821 1.66663 10.0002 1.66663C6.31826 1.66663 3.3335 2.78591 3.3335 4.16663M16.6668 4.16663V15.8333C16.6668 17.214 13.6821 18.3333 10.0002 18.3333C6.31826 18.3333 3.3335 17.214 3.3335 15.8333V4.16663M16.6668 8.05546C16.6668 9.43617 13.6821 10.5555 10.0002 10.5555C6.31826 10.5555 3.3335 9.43617 3.3335 8.05546M16.6668 11.9416C16.6668 13.3223 13.6821 14.4416 10.0002 14.4416C6.31826 14.4416 3.3335 13.3223 3.3335 11.9416" stroke="white" stroke-width="1.66667" stroke-linecap="round" stroke-linejoin="round"/>
</svg>
