<svg width="48" height="48" viewBox="0 0 48 48" fill="none" xmlns="http://www.w3.org/2000/svg">
<circle opacity="0.2" cx="24" cy="24" r="24" fill="#C9EDFF"/>
<path d="M33.9992 23.9977C33.9992 23.8288 33.9522 23.6631 33.8634 23.5194C33.7747 23.3756 33.6476 23.2595 33.4965 23.1839L30.5776 21.7246L33.4965 20.2698C33.6477 20.1944 33.775 20.0783 33.8639 19.9345C33.9529 19.7907 34 19.625 34 19.456C34 19.2869 33.9529 19.1212 33.8639 18.9775C33.775 18.8337 33.6477 18.7176 33.4965 18.6422L24.4063 14.0959C24.2802 14.0328 24.141 14 24 14C23.859 14 23.7198 14.0328 23.5937 14.0959L14.5035 18.6422C14.3523 18.7176 14.225 18.8337 14.1361 18.9775C14.0471 19.1212 14 19.2869 14 19.456C14 19.625 14.0471 19.7907 14.1361 19.9345C14.225 20.0783 14.3523 20.1944 14.5035 20.2698L17.4224 21.7246L14.5035 23.1839C14.3523 23.2594 14.225 23.3755 14.1361 23.5192C14.0471 23.663 14 23.8287 14 23.9977C14 24.1668 14.0471 24.3325 14.1361 24.4762C14.225 24.62 14.3523 24.7361 14.5035 24.8115L17.4224 26.2709L14.5035 27.7302C14.3523 27.8056 14.225 27.9217 14.1361 28.0655C14.0471 28.2093 14 28.375 14 28.544C14 28.7131 14.0471 28.8788 14.1361 29.0225C14.225 29.1663 14.3523 29.2824 14.5035 29.3578L23.5937 33.9041C23.7198 33.9672 23.859 34 24 34C24.141 34 24.2802 33.9672 24.4063 33.9041L33.4965 29.3578C33.6477 29.2824 33.775 29.1663 33.8639 29.0225C33.9529 28.8788 34 28.7131 34 28.544C34 28.375 33.9529 28.2093 33.8639 28.0655C33.775 27.9217 33.6477 27.8056 33.4965 27.7302L30.5776 26.2709L33.4965 24.8161C33.6483 24.7402 33.7758 24.6233 33.8646 24.4787C33.9535 24.3341 34.0001 24.1675 33.9992 23.9977ZM31.0576 28.544L24 32.0738L16.9424 28.544L19.4549 27.2874L23.5937 29.3624C23.7198 29.4254 23.859 29.4583 24 29.4583C24.141 29.4583 24.2802 29.4254 24.4063 29.3624L28.5451 27.2874L31.0576 28.544ZM24 27.5275L16.9424 23.9977L19.4549 22.7411L23.5937 24.8161C23.7198 24.8791 23.859 24.912 24 24.912C24.141 24.912 24.2802 24.8791 24.4063 24.8161L28.5451 22.7411L31.0576 23.9977L24 27.5275Z" fill="#C9EDFF"/>
</svg>
