<svg width="48" height="48" viewBox="0 0 48 48" fill="none" xmlns="http://www.w3.org/2000/svg">
<circle opacity="0.2" cx="24" cy="24" r="24" fill="#C9EDFF"/>
<path d="M14.4995 21H33.4995M21.9995 15L19.9995 21L23.9995 32.5L27.9995 21L25.9995 15M24.6141 32.2625L33.5727 21.5121C33.7246 21.33 33.8005 21.2389 33.8295 21.1372C33.8551 21.0475 33.8551 20.9525 33.8295 20.8628C33.8005 20.7611 33.7246 20.67 33.5727 20.4879L29.2394 15.2879C29.1512 15.182 29.1072 15.1291 29.0531 15.0911C29.0052 15.0574 28.9518 15.0324 28.8953 15.0172C28.8314 15 28.7626 15 28.6248 15H19.3742C19.2365 15 19.1676 15 19.1038 15.0172C19.0473 15.0324 18.9938 15.0574 18.946 15.0911C18.8919 15.1291 18.8478 15.182 18.7597 15.2879L14.4263 20.4879C14.2745 20.67 14.1986 20.7611 14.1696 20.8628C14.144 20.9525 14.144 21.0475 14.1696 21.1372C14.1986 21.2389 14.2745 21.33 14.4263 21.5121L23.385 32.2625C23.596 32.5158 23.7015 32.6424 23.8279 32.6886C23.9387 32.7291 24.0603 32.7291 24.1712 32.6886C24.2975 32.6424 24.4031 32.5158 24.6141 32.2625Z" stroke="#C9EDFF" stroke-width="2" stroke-linecap="round" stroke-linejoin="round"/>
</svg>
