<svg width="20" height="20" viewBox="0 0 20 20" fill="none" xmlns="http://www.w3.org/2000/svg">
<path fill-rule="evenodd" clip-rule="evenodd" d="M5.52566 5.7787C4.75852 5.10181 3.15907 3.69053 1.07686 1.17875C0.843525 0.897415 0.659525 0.666748 0.666191 0.666748C0.700858 0.666748 6.13019 5.33875 6.69152 5.98942L6.84752 6.16808L6.83419 6.44808C6.83305 6.61439 6.79544 6.77843 6.72403 6.92863C6.65261 7.07884 6.54913 7.21155 6.42086 7.31742C6.10086 7.61075 5.71286 7.76675 5.10086 7.85075C4.72486 7.90142 4.58886 7.95742 4.43686 8.12275C4.29152 8.28275 4.23686 8.48142 4.19686 8.98408C4.13419 9.76142 4.04219 10.0907 3.67152 10.8641C3.31419 11.6094 3.24086 11.8907 3.30486 12.2907C3.37952 12.7774 3.65686 13.1307 4.30486 13.5708C4.79819 13.9068 5.02219 14.1241 5.14486 14.3841C5.22086 14.5441 5.23019 14.6027 5.22886 14.8801C5.22619 15.3054 5.15819 15.4761 4.86486 15.7867C4.39152 16.2894 3.55019 16.6974 2.51552 16.9294C2.08086 17.0267 2.06219 17.0268 2.06219 16.9281C2.06219 16.8027 1.90219 16.4827 1.62219 16.0521C1.29819 15.5534 1.17019 15.3054 1.05019 14.9267C0.911525 14.4961 0.872858 14.2054 0.892858 13.7534C0.911525 13.3281 0.958191 13.1387 1.12886 12.8014C1.26486 12.5321 1.35286 12.4107 1.88886 11.7454C2.80619 10.6081 3.13686 9.94408 3.25419 9.00408C3.35952 8.16542 3.50486 7.76008 3.83019 7.40008C4.02486 7.18275 4.06886 7.10008 4.06886 6.94275C4.06886 6.9269 4.07681 6.90596 4.08742 6.87801C4.12859 6.76955 4.20983 6.55555 4.02219 6.12408C2.73489 3.83438 2.57849 3.55802 2.58849 3.55185C2.58987 3.55101 2.59438 3.55525 2.59952 3.56008C3.1068 4.32329 3.60815 5.09043 4.10352 5.86142C4.61565 6.76495 4.72709 6.85993 4.82352 6.9421C4.8368 6.95342 4.8498 6.9645 4.86352 6.97742C4.86352 6.97742 4.93152 7.05208 5.12752 7.05208C5.36665 7.03385 5.5999 6.96908 5.81419 6.86142C6.11552 6.69075 6.18219 6.47208 6.00619 6.22942C5.95196 6.15484 5.78717 6.00944 5.52566 5.7787ZM2.42913 13.9094C2.45755 14.0303 2.43936 14.1574 2.37819 14.2654C2.25552 14.4801 2.02352 14.5494 1.85952 14.4228C1.75819 14.3428 1.75019 14.2267 1.83952 14.0947C1.92752 13.9627 1.91952 13.8987 1.80752 13.8414C1.74086 13.8081 1.71152 13.7694 1.71152 13.7161C1.71152 13.5441 2.02486 13.4801 2.22486 13.6134C2.32777 13.6829 2.40071 13.7886 2.42913 13.9094ZM6.57952 8.70542C6.66752 8.38808 6.94619 8.08542 7.23286 7.99875C7.48012 7.9491 7.73652 7.97321 7.97019 8.06808C8.31419 8.24275 8.56352 8.63742 8.51019 8.92275C8.44352 9.27208 7.87552 9.55075 7.22219 9.55475C6.88752 9.55608 6.76486 9.51208 6.63686 9.34275C6.55819 9.23875 6.52752 8.89875 6.57952 8.70542ZM7.88219 8.19208C8.05419 8.29608 8.09819 8.44942 7.99819 8.59208C7.92886 8.69075 7.71286 8.78408 7.55552 8.78408C7.31952 8.78408 7.06219 8.61742 7.06219 8.46408C7.06219 8.15742 7.55686 7.99342 7.88219 8.19208ZM6.05959 2.0081C5.94093 2.02543 5.95159 2.02943 6.20226 2.0681V2.06943C7.11559 2.20943 7.82893 2.56943 8.55559 3.2561C8.87559 3.55743 9.19559 3.9321 9.71559 4.61077C10.8863 6.1361 11.3823 6.5601 12.3676 6.8801C12.9463 7.0681 13.5303 7.1561 14.5623 7.20943C15.7036 7.26943 16.1356 7.36143 16.5436 7.62943C16.7784 7.78637 16.9763 7.99246 17.1236 8.23343L17.2249 8.39077L17.2036 8.21743C17.1223 7.55343 16.6449 6.6201 16.0356 5.93477L15.9249 5.80943L15.8689 6.06143C15.7289 6.69343 15.4249 7.14677 15.1423 7.14677C15.0738 7.14669 15.0068 7.1274 14.9488 7.09109C14.8909 7.05479 14.8442 7.00294 14.8143 6.94143C14.7516 6.7921 14.7569 6.73743 14.8503 6.5641C15.0223 6.24543 15.0636 5.8201 14.9783 5.26277C14.9556 5.10143 14.9196 4.9521 14.8983 4.9281C14.8383 4.85477 14.3449 4.56943 14.0316 4.42543C12.8943 3.9041 11.5369 3.73477 10.2009 3.9481L9.88359 3.99877L9.66226 3.75343C8.82759 2.82943 8.04626 2.30943 7.18759 2.10677C6.81959 2.0201 6.28626 1.97343 6.05959 2.0081ZM15.345 2.55476C15.2196 2.82809 15.1583 3.12809 15.133 3.58142H15.1316C15.1156 3.87476 15.0983 3.97476 15.065 3.98809C15.013 4.00676 14.9436 3.98676 14.5196 3.82409C14.2356 3.71609 13.529 3.51076 13.509 3.53076C13.6143 3.59186 13.724 3.64533 13.837 3.69076C14.0663 3.7956 14.2906 3.91129 14.509 4.03742C15.233 4.46142 15.3583 4.71076 15.3583 5.74409C15.3583 6.25876 15.3516 6.32809 15.2876 6.48276C15.2023 6.69209 15.217 6.73209 15.3116 6.54542C15.4876 6.20542 15.561 5.86409 15.5703 5.33209C15.5783 4.99076 15.5876 4.91876 15.637 4.87076C15.689 4.81876 15.7023 4.81876 15.7876 4.86142C15.9156 4.92675 16.4916 5.38275 16.7423 5.61609L16.9476 5.80676L16.7423 5.54009C16.629 5.39209 16.3183 5.05076 16.0503 4.77876C15.481 4.20009 15.437 4.12276 15.357 3.58676C15.293 3.16409 15.309 2.80142 15.3996 2.53476C15.433 2.43742 15.4543 2.35742 15.4476 2.35742C15.4068 2.41956 15.3724 2.48568 15.345 2.55476ZM5.93431 2.78809C5.86497 3.58676 6.18097 4.65476 6.68897 5.35076C7.08364 5.89076 7.69564 6.31076 8.14764 6.35076C8.44364 6.37742 8.53164 6.28542 8.39831 6.09075C8.21297 5.82142 7.98364 5.40675 7.92364 5.22942C7.88631 5.11742 7.80497 4.79209 7.74231 4.50409C7.53031 3.52009 7.32097 3.13742 6.83964 2.84676C6.66364 2.74009 6.28897 2.60142 6.07031 2.56142L5.95431 2.54142L5.93431 2.78809ZM11.2983 7.36275C11.2983 8.75609 12.1356 9.58276 14.5143 10.5334C16.0983 11.1668 16.7463 11.4961 17.229 11.9081C17.653 12.2708 17.9063 12.7548 17.9303 13.2508C17.9343 13.3441 17.9516 13.4121 17.9703 13.4054C18.0343 13.3841 18.277 12.8441 18.357 12.5441C18.4596 12.1641 18.4943 11.4441 18.433 11.0601C18.2183 9.73609 17.321 8.76542 15.8676 8.28676C15.4103 8.13609 14.917 8.03342 14.037 7.90542C12.541 7.68809 12.001 7.52409 11.5183 7.14009C11.4143 7.05609 11.3223 6.98942 11.3143 6.98942C11.305 6.98942 11.2983 7.15742 11.2983 7.36275ZM12.7303 10.4294C12.7787 10.5936 12.817 10.7606 12.845 10.9294C13.0356 12.0574 12.4396 12.9681 11.2823 13.3201C11.1596 13.3574 10.6756 13.4521 10.209 13.5294C9.26231 13.6854 8.83964 13.7961 8.41564 14.0001C8.11564 14.1441 7.75031 14.3601 7.77164 14.3814C7.82453 14.3789 7.8765 14.3667 7.92497 14.3454C8.45964 14.1588 9.05564 14.0614 9.96097 14.0148C10.3196 13.9961 10.7276 13.9668 10.8676 13.9494C11.6743 13.8481 12.233 13.6054 12.6676 13.1654C12.8948 12.9435 13.0665 12.6713 13.169 12.3708C13.2436 12.1681 13.2543 12.0921 13.2543 11.7308C13.2543 11.3628 13.2463 11.2961 13.1663 11.0694C13.0623 10.7721 12.9383 10.5494 12.7823 10.3761L12.669 10.2494L12.7303 10.4294ZM13.936 12.8546C13.62 12.1799 13.5466 11.5279 13.72 10.9199C13.7386 10.8533 13.768 10.8013 13.7866 10.8013C13.804 10.8013 13.88 10.8413 13.952 10.8906C14.0986 10.9879 14.3893 11.1519 15.168 11.5733C16.1386 12.0999 16.6933 12.5066 17.0693 12.9733C17.3986 13.3799 17.6026 13.8453 17.7013 14.4106C17.7573 14.7306 17.724 15.5039 17.6413 15.8266C17.38 16.8453 16.7746 17.6453 15.908 18.1119C15.7813 18.1799 15.668 18.2359 15.6546 18.2359C15.6426 18.2359 15.6893 18.1199 15.7573 17.9773C16.0493 17.3719 16.0826 16.7839 15.8626 16.1293C15.7266 15.7279 15.452 15.2386 14.8973 14.4106C14.252 13.4506 14.0946 13.1933 13.936 12.8546ZM4.99997 16.4986C5.88397 15.7573 6.9813 15.2319 7.98264 15.0693C8.49839 15.0031 9.02155 15.0234 9.53064 15.1293C10.1706 15.2919 10.744 15.6573 11.0413 16.0906C11.332 16.5159 11.4573 16.8853 11.588 17.7093C11.6386 18.0333 11.6946 18.3599 11.7106 18.4333C11.808 18.8599 11.9986 19.2013 12.2333 19.3719C12.6066 19.6439 13.252 19.6613 13.8853 19.4159C13.9511 19.3856 14.0206 19.3641 14.092 19.3519C14.1146 19.3746 13.796 19.5866 13.572 19.6986C13.3062 19.8399 13.0089 19.9115 12.708 19.9066C12.128 19.9066 11.6466 19.6133 11.244 19.0159C11.0963 18.763 10.9645 18.5012 10.8493 18.2319C10.4253 17.2706 10.216 16.9786 9.72397 16.6573C9.29464 16.3773 8.7413 16.3279 8.3253 16.5306C7.77864 16.7973 7.62664 17.4906 8.01864 17.9306C8.20176 18.1197 8.44133 18.2441 8.7013 18.2853C8.80456 18.2994 8.90965 18.2912 9.00944 18.2612C9.10924 18.2311 9.20141 18.18 9.27969 18.1112C9.35797 18.0424 9.42054 17.9575 9.46315 17.8624C9.50576 17.7673 9.52741 17.6642 9.52664 17.5599C9.52664 17.2706 9.41464 17.1066 9.1333 16.9786C8.74797 16.8066 8.33597 17.0079 8.3373 17.3666C8.3373 17.5199 8.4053 17.6159 8.55997 17.6866C8.65864 17.7306 8.6613 17.7333 8.57997 17.7173C8.22797 17.6439 8.1453 17.2213 8.42797 16.9413C8.7693 16.6053 9.4733 16.7533 9.71464 17.2133C9.81597 17.4066 9.82797 17.7906 9.73997 18.0226C9.53997 18.5426 8.96397 18.8159 8.3773 18.6666C7.9773 18.5653 7.81597 18.4559 7.33464 17.9639C6.49864 17.1079 6.17464 16.9413 4.9693 16.7546L4.7373 16.7186L4.99997 16.4986Z" fill="#1A8CC5"/>
</svg>
